<svg xmlns="http://www.w3.org/2000/svg" version="1.1" xmlns:xlink="http://www.w3.org/1999/xlink" xmlns:svgjs="http://svgjs.dev/svgjs" width="1000" height="1125" viewBox="0 0 1000 1125"><g transform="matrix(1,0,0,1,1.7053025658242404e-13,0)"><svg viewBox="0 0 320 360" data-background-color="#ffffff" preserveAspectRatio="xMidYMid meet" height="1125" width="1000" xmlns="http://www.w3.org/2000/svg" xmlns:xlink="http://www.w3.org/1999/xlink"><g id="tight-bounds" transform="matrix(1,0,0,1,0,0)"><svg viewBox="0 0 320 360" height="360" width="320"><g><svg></svg></g><g><svg viewBox="0 0 320 360" height="360" width="320"><g><path xmlns="http://www.w3.org/2000/svg" d="M20.961 227.22l3.726 4.658-1.863-6.056c-0.466-2.795-3.726 0.466-1.863 1.398M25.153 224.425c1.397 2.329 2.795 4.658 2.795 6.987 0 3.261 2.795 4.658 5.123 5.589-3.261-3.726-5.124-13.974-7.918-12.576M204.017 26.929c7.918 0 15.371-0.932 23.756 0.931 20.495 5.124 37.729 15.371 49.374 29.811l32.606 52.169c1.397 13.042 4.192 27.482 3.726 43.319 3.261 0 2.795-4.658 6.521-5.59-3.726 9.316-5.59 20.961-6.521 34.469-2.329-7.453 0-18.632 0.466-24.687-3.261 5.124-5.124 1.397-5.124-0.932 0.466-3.726-1.397-3.261-2.795-4.658-5.124-4.658-8.384-9.782-12.11-17.7 2.329-6.055 2.795-14.905-4.658-19.563-2.329-1.397-5.124-3.726-6.521-7.453-1.863-5.124-5.124-11.179-4.193-19.097 0.466-2.329-6.987 5.124-11.179 1.863-18.166-12.576-36.332-27.016-58.224-39.127-11.645 0-20.029-4.192-24.221-9.316-3.726-4.658-0.932-10.713 4.658-11.179 3.261 0 6.987-0.932 9.782 0.932 0.466-1.863 2.329-4.192 4.657-4.192M157.904 16.215l0.932 0.466c4.658 0.932 6.987 7.453 12.11 5.124 0 3.261 0.466 6.521-0.466 8.85-1.397 3.726-5.59 3.726-8.85 3.726-31.208-1.863-49.374 11.179-68.471 22.358-5.124 3.261-10.713 5.59-14.906 9.782-20.029 18.632-41.921 35.866-47.045 70.335l-4.192 38.195c-0.466 4.192-5.124 8.384-4.192 13.508l3.26 22.824c-3.261-3.261-5.124 0.932-4.192 2.795 0.466 1.397 2.329 6.055 5.124 1.863 3.726 6.987 7.453 20.495 12.576 26.55 15.837 18.632 36.332 35.4 53.101 52.169 4.192-0.932 7.453-0.932 8.384-3.727 1.397 2.795-1.397 5.59-3.726 6.056 7.453 4.658 15.837 8.85 27.016 9.781 14.44 0.932 27.948 3.261 40.524 6.522 6.521-1.863 13.042-2.795 20.029-3.261 2.329 0 3.726-3.726 6.521-4.658l0.466-4.658c2.795 4.192 2.329-1.397 0.466-4.192 3.261 2.795 4.192 5.124 5.589 6.987 0-1.397 3.726-6.521 3.727-0.466l0.931-6.055c1.397-0.932 1.863 5.124 3.261 0.931 1.397-4.192 4.192-0.932 6.987-2.329-0.932 1.863-0.466 5.59 2.794 3.261l3.727-3.261c2.329 5.59 6.055 3.261 7.918 2.329 20.495-13.042 40.99-28.413 60.553-43.784l-0.466 6.055 2.329-7.453c2.329 2.329 4.192 0.466 5.124-0.931 2.795-4.658 6.521-9.316 12.577-13.508-7.453 20.029-16.303 35.866-27.482 48.908l-4.658 5.59c0 3.261-0.932 7.453-4.658 7.918-1.863 0.466-5.59-0.932-8.384 1.863-1.397 1.863 3.261 5.59-0.466 2.795-3.261-2.329-6.521 0-10.248 0.932-2.795 0.932 1.863 3.726 2.795 5.589 0.932 1.863 1.863 3.726 1.398 6.056l-5.124-5.59c-6.055 3.261-9.782 9.316-14.906 13.974-2.329 1.863-1.397 5.124-1.397 7.918-3.261 0-6.987-0.932-8.85 0.932-1.397 1.863-0.932 4.658-0.932 7.453-4.658-0.466-5.124-7.453-9.315-6.056-4.192 0.932-8.85 1.397-12.577 3.727 2.795 5.59-4.658 2.329-3.726 3.26-6.987-4.192-13.042-7.453-20.495-4.658-15.837-5.124-35.4-2.795-49.84-0.931 0-2.329 0.466-4.658-0.466-5.124-0.932 2.329-3.726 1.397-3.26 1.397-8.85-6.055-17.7-9.782-27.016-14.905-8.384 0.932-16.303-3.261-18.632-5.59-6.521-6.055-13.974-2.795-20.029-4.192-13.042-3.261-17.7-16.769-19.098-26.084-0.932-4.658-4.658-6.521-6.055-6.056-6.055-19.563-15.371-37.263-22.824-55.429-1.863-4.658-1.397-9.316-1.397-14.44 2.329 0.932 4.658 0.466 4.192-2.794-2.329-15.371-7.918-27.016-13.974-38.195 3.261-15.837 3.726-34.469 11.179-48.443 6.521-12.576 18.632-19.098 27.016-29.811 2.795-3.726 2.795-8.85 5.59-12.11 9.316-9.316 18.632-19.098 28.879-27.482 4.658-3.726 10.247 0 17.234-1.397 2.329-8.384 11.645-15.837 20.495-13.508 3.726 0.932 11.179-8.85 13.508-9.782 3.726-1.397 1.863 3.726 1.863 6.987 8.85-6.987 20.961-10.713 32.14-14.906" fill="#528265" fill-rule="nonzero" stroke="none" stroke-width="1" stroke-linecap="butt" stroke-linejoin="miter" stroke-miterlimit="10" stroke-dasharray="" stroke-dashoffset="0" font-family="none" font-weight="none" font-size="none" text-anchor="none" style="mix-blend-mode: normal" data-fill-palette-color="tertiary"></path></g><g transform="matrix(1,0,0,1,68.01498535209153,90)"><svg viewBox="0 0 183.97002929581694 180" height="180" width="183.97002929581694"><g><svg viewBox="0 0 183.97002929581694 180" height="180" width="183.97002929581694"><g><svg viewBox="0 0 192 187.8566858541334" height="180" width="183.97002929581694"><g transform="matrix(1,0,0,1,0,113.07650950873965)"><svg viewBox="0 0 192 74.78017634539374" height="74.78017634539374" width="192"><g id="textblocktransform"><svg viewBox="0 0 192 74.78017634539374" height="74.78017634539374" width="192" id="textblock"><g><svg viewBox="0 0 192 74.78017634539374" height="74.78017634539374" width="192"><g transform="matrix(1,0,0,1,0,0)"><svg width="192" viewBox="0.8299999833106995 -30.639999389648438 80.29999542236328 31.26999855041504" height="74.78017634539374" data-palette-color="#528265"><path d="M0.83 0L14.38 0 14.99-3.93 11.84-5.59 12.65-19.21 18.24 0.2 25.39-0.76 30.88-19.19 31.45-5.44 28.96-3.76 28.39 0 44.53 0 44.87-3.93 40.82-5.59 39.6-25.22 43.31-26.54 43.75-30.37 28.61-30.37 26.98-25.42 23.17-13.5 20.04-25.37 18.65-30.37 2.76-30.37 2.37-26.54 6.86-25.15 5.44-5.69 1.34-3.76 0.83 0ZM64.13 0L64.43-3.78 60.69-5.1 60.69-11.45 64.45-11.45 65.01-9.47Q66.01-5.96 67.48-3.75 68.94-1.54 71.1-0.45 73.26 0.63 76.34 0.63L76.34 0.63Q77.54 0.63 78.64 0.45 79.73 0.27 80.37-0.05L80.37-0.05 81.13-3.25 80.17-3.88Q78.22-5.18 76.57-6.65 74.92-8.13 73.44-10.25L73.44-10.25 70.92-13.94 70.92-13.96Q73.44-14.99 75.03-17.05 76.63-19.12 76.63-22.17L76.63-22.17Q76.63-25.27 75-27.14 73.36-29 70.18-29.82 66.99-30.64 62.08-30.64L62.08-30.64Q53.49-30.64 47.26-29.37L47.26-29.37 46.97-25.46 51.66-24.32 51.66-5.3 47.02-3.37 46.56 0 64.13 0ZM60.69-26.22Q60.96-26.25 61.5-26.25L61.5-26.25Q63.23-26.25 64.56-25.52 65.89-24.8 66.61-23.6 67.33-22.39 67.33-21L67.33-21Q67.33-19.14 66.92-17.92 66.5-16.7 65.65-15.82L65.65-15.82 60.69-15.82 60.69-26.22Z" opacity="1" transform="matrix(1,0,0,1,0,0)" fill="#528265" class="undefined-text-0" data-fill-palette-color="primary" id="text-0"></path></svg></g></svg></g></svg></g></svg></g><g transform="matrix(1,0,0,1,36.672,0)"><svg viewBox="0 0 118.656 102.16428705571441" height="102.16428705571441" width="118.656"><g><svg xmlns="http://www.w3.org/2000/svg" xmlns:xlink="http://www.w3.org/1999/xlink" version="1.1" x="0" y="0" viewBox="0.8520021438598633 8.295343399047852 99.14799499511719 85.3676528930664" enable-background="new 0 0 100 100" xml:space="preserve" height="102.16428705571441" width="118.656" class="icon-icon-0" data-fill-palette-color="accent" id="icon-0"><path d="M92.422 47.256c0.042-0.18 0.066-0.366 0.066-0.555 0-1.759-1.923-3.183-4.296-3.183-0.857 0-1.654 0.187-2.325 0.507-1.106-0.307-2.27-0.537-3.477-0.682-1.048-1.185-2.872-1.969-4.947-1.969-2.636 0-4.868 1.265-5.617 3.009-4.149 1.408-7.342 3.932-8.726 6.997h13.774c-0.003 0.002-0.005 0.003-0.007 0.006-0.992 0.803-3.626 2.15-10.126 2.15-4 0-7.329 1.349-9.897 4.011-1.134 1.176-2.026 2.524-2.73 3.934-0.927-4.731-1.291-11.464 1.908-12.767 9.229-3.76 15.616-11.02 16.367-18.406H100c-2.484-5.501-8.046-10.083-15.315-12.812 0.268-0.471 0.416-0.976 0.416-1.501 0-2.548-3.419-4.613-7.637-4.613-0.788 0-1.548 0.072-2.263 0.206C73.846 9.29 70.513 7.92 66.84 8.386c-4.533 0.575-7.867 3.726-7.447 7.039 0.016 0.121 0.037 0.24 0.063 0.358-5.299 1.131-10.01 3.169-13.743 5.845-0.014-0.003-0.027-0.006-0.041-0.01-0.445-0.604-1.255-1.009-2.183-1.009-0.569 0-1.092 0.154-1.516 0.41-1.205-0.127-2.439-0.194-3.696-0.194-3.123 0-6.105 0.408-8.841 1.147-0.601-0.261-1.287-0.409-2.015-0.409-2.122 0-3.883 1.254-4.231 2.901-1.788 0.988-3.362 2.147-4.671 3.442-1.222-0.589-2.697-0.934-4.287-0.934-4.218 0-7.637 2.421-7.637 5.409 0 0.708 0.194 1.384 0.544 2.004-2.893 1.861-5.088 4.22-6.287 6.877h15.355c0.148 0.893 0.677 2.524 2.538 4.032 2.672 2.162 7.133 3.26 13.261 3.26 2.625 0 4.687 0.81 6.302 2.478 4.16 4.297 3.938 12.68 3.936 12.76l0.013 0.001-1.895 28.043h0.004c0 0.002-0.001 0.003-0.001 0.005 0 1.006 3.964 1.822 8.854 1.822 4.889 0 8.853-0.816 8.853-1.822 0-0.002-0.001-0.003-0.001-0.005h0.001l-1.346-21.651c0.362-2.825 1.3-6.695 3.715-9.189 1.615-1.668 3.677-2.479 6.303-2.479 6.127 0 10.588-1.096 13.259-3.26 1.76-1.424 2.33-2.959 2.511-3.877h13.243C95.062 49.846 93.914 48.448 92.422 47.256zM40.499 35.335c-1.527-1.16-3.301-2.167-5.266-2.98h4.82C40.14 33.398 40.289 34.392 40.499 35.335zM46.671 48.437c-0.568 1.612-0.906 3.462-1.012 5.522-0.792-2.259-1.979-4.53-3.758-6.374-2.568-2.662-5.897-4.012-9.896-4.012-5.521 0-8.261-0.964-9.588-1.773-0.309-0.188-0.543-0.37-0.723-0.536H43.09c0.425 0.583 0.891 1.127 1.401 1.634 1.161 1.152 2.422 1.981 3.65 2.579C47.549 46.36 47.055 47.348 46.671 48.437zM51.071 42.516c-1.246-0.431-2.644-1.15-3.859-2.356-1.852-1.84-2.951-4.458-3.282-7.804h17.267c-0.317-0.704-0.705-1.387-1.154-2.046h4.414c-0.352 1.653-1.274 3.41-2.688 5.078-2.127 2.512-5.138 4.608-8.707 6.062C52.352 41.738 51.688 42.097 51.071 42.516z" fill="#528265" data-fill-palette-color="accent"></path></svg></g></svg></g><g></g></svg></g></svg></g></svg></g></svg></g><defs></defs></svg><rect width="320" height="360" fill="none" stroke="none" visibility="hidden"></rect></g></svg></g></svg>